<?xml version="1.0" encoding="UTF-8" standalone="no"?>
<!-- Generator: Adobe Illustrator 19.0.0, SVG Export Plug-In . SVG Version: 6.00 Build 0)  -->

<svg
   xmlns:dc="http://purl.org/dc/elements/1.1/"
   xmlns:cc="http://creativecommons.org/ns#"
   xmlns:rdf="http://www.w3.org/1999/02/22-rdf-syntax-ns#"
   xmlns:svg="http://www.w3.org/2000/svg"
   xmlns="http://www.w3.org/2000/svg"
   xmlns:xlink="http://www.w3.org/1999/xlink"
   xmlns:sodipodi="http://sodipodi.sourceforge.net/DTD/sodipodi-0.dtd"
   xmlns:inkscape="http://www.inkscape.org/namespaces/inkscape"
   version="1.1"
   id="Layer_1"
   x="0px"
   y="0px"
   viewBox="0 0 18 10"
   style="enable-background:new 0 0 18 10;"
   xml:space="preserve"
   sodipodi:docname="accordion-arrow-down.svg"
   inkscape:version="0.92.5 (2060ec1f9f, 2020-04-08)"><metadata
   id="metadata27"><rdf:RDF><cc:Work
       rdf:about=""><dc:format>image/svg+xml</dc:format><dc:type
         rdf:resource="http://purl.org/dc/dcmitype/StillImage" /><dc:title></dc:title></cc:Work></rdf:RDF></metadata><defs
   id="defs25" /><sodipodi:namedview
   pagecolor="#ffffff"
   bordercolor="#666666"
   borderopacity="1"
   objecttolerance="10"
   gridtolerance="10"
   guidetolerance="10"
   inkscape:pageopacity="0"
   inkscape:pageshadow="2"
   inkscape:window-width="787"
   inkscape:window-height="480"
   id="namedview23"
   showgrid="false"
   inkscape:zoom="19.277778"
   inkscape:cx="9"
   inkscape:cy="5"
   inkscape:window-x="0"
   inkscape:window-y="27"
   inkscape:window-maximized="0"
   inkscape:current-layer="Layer_1" />
<style
   type="text/css"
   id="style2">
	.st0{clip-path:url(#SVGID_2_);}
	.st1{clip-path:url(#SVGID_4_);fill:#45499E;}
</style>
<g
   id="g20"
   transform="matrix(1,0,0,-1,0,10.026013)">
	<defs
   id="defs5">
		<path
   id="SVGID_1_"
   d="M 0.1,1.2 C 0.2,1.3 0.2,1.4 0.4,1.5 1.7,3 3,4.6 4.4,6 5.2,6.8 6,7.8 6.8,8.6 7.5,9.2 8.4,10.2 9.3,10 10.2,9.8 10.8,8.9 11.5,8.3 12.3,7.7 13.1,7.1 13.8,6.2 14.4,5.5 15,4.7 15.6,4 16,3.6 18.6,1.3 17.8,0.6 17.5,0.3 16.9,0.5 16.5,0.4 15.1,0.1 13.7,0.4 12.3,0.4 10.8,0.4 9.3,0.2 7.8,0.2 6.7,0.2 5.6,0 4.5,0 3.5,0 2.6,0.2 1.5,0.1 0.9,0.1 -0.4,0.3 0.1,1.2"
   inkscape:connector-curvature="0" />
	</defs>
	<clipPath
   id="SVGID_2_">
		<use
   xlink:href="#SVGID_1_"
   style="overflow:visible"
   id="use7"
   x="0"
   y="0"
   width="100%"
   height="100%" />
	</clipPath>
	<g
   class="st0"
   clip-path="url(#SVGID_2_)"
   id="g18">
		<defs
   id="defs11">
			<rect
   id="SVGID_3_"
   x="-1340"
   y="-12108"
   width="1440"
   height="13555" />
		</defs>
		<clipPath
   id="SVGID_4_">
			<use
   xlink:href="#SVGID_3_"
   style="overflow:visible"
   id="use13"
   x="0"
   y="0"
   width="100%"
   height="100%" />
		</clipPath>
		<rect
   x="-5"
   y="-5"
   class="st1"
   width="28"
   height="20"
   clip-path="url(#SVGID_4_)"
   id="rect16"
   style="fill:#45499e" />
	</g>
</g>
</svg>