<?xml version="1.0" encoding="UTF-8" standalone="no"?>
<svg
   xmlns:dc="http://purl.org/dc/elements/1.1/"
   xmlns:cc="http://creativecommons.org/ns#"
   xmlns:rdf="http://www.w3.org/1999/02/22-rdf-syntax-ns#"
   xmlns:svg="http://www.w3.org/2000/svg"
   xmlns="http://www.w3.org/2000/svg"
   xmlns:sodipodi="http://sodipodi.sourceforge.net/DTD/sodipodi-0.dtd"
   xmlns:inkscape="http://www.inkscape.org/namespaces/inkscape"
   width="23px"
   height="17px"
   viewBox="0 0 23 17"
   version="1.1"
   id="svg9"
   sodipodi:docname="Arrow-right.svg"
   inkscape:version="0.92.5 (2060ec1f9f, 2020-04-08)">
  <metadata
     id="metadata15">
    <rdf:RDF>
      <cc:Work
         rdf:about="">
        <dc:format>image/svg+xml</dc:format>
        <dc:type
           rdf:resource="http://purl.org/dc/dcmitype/StillImage" />
        <dc:title>Arrow left</dc:title>
      </cc:Work>
    </rdf:RDF>
  </metadata>
  <defs
     id="defs13" />
  <sodipodi:namedview
     pagecolor="#ffffff"
     bordercolor="#666666"
     borderopacity="1"
     objecttolerance="10"
     gridtolerance="10"
     guidetolerance="10"
     inkscape:pageopacity="0"
     inkscape:pageshadow="2"
     inkscape:window-width="1366"
     inkscape:window-height="704"
     id="namedview11"
     showgrid="false"
     inkscape:zoom="13.882353"
     inkscape:cx="11.5"
     inkscape:cy="8.5"
     inkscape:window-x="0"
     inkscape:window-y="27"
     inkscape:window-maximized="1"
     inkscape:current-layer="svg9" />
  <!-- Generator: Sketch 59.1 (86144) - https://sketch.com -->
  <title
     id="title2">Arrow left</title>
  <desc
     id="desc4">Created with Sketch.</desc>
  <g
     id="Page-1"
     transform="matrix(-1,0,0,1,23,0)"
     style="fill:none;fill-rule:evenodd;stroke:none;stroke-width:1">
    <g
       id="Style-guide"
       transform="translate(-19,-20498)"
       style="fill:#3f43aa">
      <path
         d="m 33.286168,20503.044 c -0.174213,0.117 -0.458319,0.04 -0.91808,0.03 -1.455717,-0.04 -2.913742,-0.04 -4.365421,0.105 -1.549457,0.152 -3.09978,0.177 -4.655872,0.257 -1.014416,0.05 -2.77789,-0.193 -3.641168,0.344 -0.78742,0.49 -0.722234,1.949 -0.687622,2.729 0.05134,1.159 0.224112,2.318 0.890679,3.313 0.522927,0.781 1.5783,0.695 2.460903,0.779 1.665984,0.157 3.413306,0.109 5.083329,0.01 1.429181,-0.08 2.843652,-0.389 4.283217,-0.388 0.76723,0 1.407549,0.07 2.150839,0.286 0.15085,0.04 0.257282,3.334 0.365444,3.696 0.731464,2.452 3.012097,-1.488 3.621266,-2.182 0.428321,-0.488 0.670893,-1.069 1.085081,-1.556 0.50043,-0.589 1.036049,-1.152 1.555515,-1.724 0.61638,-0.68 1.389378,-1.444 1.477061,-2.406 0.09778,-1.074 -0.650703,-1.662 -1.319577,-2.365 -0.619841,-0.652 -1.128923,-1.42 -1.78453,-2.07 -1.214588,-1.203 -2.560701,-2.262 -3.842493,-3.391 -0.511102,-0.451 -1.25295,-0.826 -1.666561,-0.113 -0.381596,0.657 0.01817,1.364 0.09432,2.035 0.07297,0.647 0.113354,1.44 0.02827,2.09 -0.03865,0.295 -0.104701,0.447 -0.214593,0.521"
         id="Arrow-left"
         transform="matrix(-1,0,0,1,61,0)"
         inkscape:connector-curvature="0" />
    </g>
  </g>
</svg>
